# xmcd
#
# Track frame offsets:
#        150
#        14633
#        28015
#        37441
#        51329
#        62369
#        71585
#        93421
#        107875
#        120251
#        132191
#        145429
#
# Disc length: 2146 seconds
#
# Revision: 0
# Processed by: cddbd v1.5.1PL0 Copyright (c) Steve Scherf et al.
# Submitted via: ExactAudioCopy v0.95a5
#
DISCID=b008600c
DTITLE=Bobby Rush - Absolutely The Best
DYEAR=2003
DGENRE=Funk
TTITLE0=It's Alright
TTITLE1=She's A Good Un Part 1
TTITLE2=She's A Good Un Part 2
TTITLE3=Get It On With Me
TTITLE4=Bowlegged Woman, Knock-Kneed Man, Part 1
TTITLE5=Bowlegged Woman, Knock-Kneed Man, Part 2
TTITLE6=I Don't Know (Dust My Broom Medley)
TTITLE7=I'm Still Waiting
TTITLE8=Am I Good Enough For You
TTITLE9=Get Out Of Here With Your Boom-Boom
TTITLE10=Niki Hoeky
TTITLE11=It's Alright (alternate version)
EXTD=Fuel 2000(US) 302061369-2 \n(UPC 030206136920)
EXTT0=
EXTT1=
EXTT2=
EXTT3=
EXTT4=
EXTT5=
EXTT6=
EXTT7=
EXTT8=
EXTT9=
EXTT10=
EXTT11=
PLAYORDER=
